name C:\Users\u0101727\Documents\MyRepositories\paper-ad\predictivesimulations_2d/Results/PredSim_2D/IK_c9.mot
datacolumns 11
datarows 34
range 0.63318010 0.94977015
endheader
time	pelvis_tilt	pelvis_tx	pelvis_ty	hip_flexion_l	hip_flexion_r	knee_angle_l	knee_angle_r	ankle_angle_l	ankle_angle_r	lumbar_extension	
          0.63318010	        -15.07301053	          0.85495750	          0.89986880	         25.71379261	         11.39269169	        -10.65134748	        -40.88807019	          8.49596258	         -0.30406432	         10.32988510	
          0.64277374	        -15.09010662	          0.86692985	          0.90130634	         24.79498860	         12.66564225	        -10.40428370	        -41.78446694	          8.59870368	          0.67206197	         10.29152367	
          0.65236737	        -15.10472347	          0.87884635	          0.90250021	         23.86091402	         13.97103531	        -10.13238265	        -42.57294614	          8.74226557	          1.72811950	         10.24917372	
          0.66196101	        -15.11684615	          0.89071463	          0.90345369	         22.91600244	         15.30386649	         -9.84344854	        -43.24533817	          8.92078404	          2.84643656	         10.20315415	
          0.67155465	        -15.12659813	          0.90254199	          0.90417739	         21.96415276	         16.65815030	         -9.54454571	        -43.79411784	          9.12776047	          4.00920455	         10.15394149	
          0.68114829	        -15.13414208	          0.91433467	          0.90468827	         21.00953671	         18.02806734	         -9.24323074	        -44.21161657	          9.35551090	          5.19858240	         10.10196406	
          0.69074192	        -15.13961937	          0.92609821	          0.90500707	         20.05671816	         19.40812806	         -8.94734477	        -44.49004323	          9.59599452	          6.39675408	         10.04756487	
          0.70033556	        -15.14317566	          0.93783861	          0.90515524	         19.11049974	         20.79184124	         -8.66526498	        -44.62245002	          9.84127511	          7.58592732	          9.99112342	
          0.70992920	        -15.14503058	          0.94956293	          0.90515303	         18.17412262	         22.17228223	         -8.40262734	        -44.60319767	         10.08402025	          8.74843278	          9.93317345	
          0.71952284	        -15.14550053	          0.96127949	          0.90501856	         17.24840032	         23.54257086	         -8.16072035	        -44.42821527	         10.31758563	          9.86690452	          9.87445586	
          0.72911648	        -15.14486734	          0.97299708	          0.90476735	         16.33474701	         24.89480696	         -7.94234396	        -44.09554173	         10.53518139	         10.92460370	          9.81570580	
          0.73871011	        -15.14337523	          0.98472393	          0.90441250	         15.43530635	         26.22100668	         -7.75113126	        -43.60426667	         10.73071968	         11.90608581	          9.75754582	
          0.74830375	        -15.14126505	          0.99646905	          0.90396471	         14.55165634	         27.51243045	         -7.59008733	        -42.95733118	         10.89955339	         12.79795972	          9.70070344	
          0.75789739	        -15.13879498	          1.00824091	          0.90343308	         13.68472797	         28.76103523	         -7.46124731	        -42.15928442	         11.03871175	         13.58999914	          9.64587435	
          0.76749103	        -15.13622891	          1.02004616	          0.90282570	         12.83538007	         29.96060703	         -7.36568972	        -41.21450600	         11.14705211	         14.27612652	          9.59354784	
          0.77708467	        -15.13380500	          1.03189111	          0.90214908	         12.00432182	         31.10543712	         -7.30508854	        -40.12972303	         11.22529154	         14.85475007	          9.54416530	
          0.78667830	        -15.13174478	          1.04378011	          0.90140859	         11.19187340	         32.19258245	         -7.28035446	        -38.91043231	         11.27624446	         15.32870215	          9.49791607	
          0.79627194	        -15.13025999	          1.05571675	          0.90060800	         10.39792492	         33.22069203	         -7.29188345	        -37.56161341	         11.30436627	         15.70426573	          9.45486496	
          0.80586558	        -15.12956961	          1.06770441	          0.89974928	          9.62222822	         34.18916142	         -7.33969031	        -36.08866935	         11.31497219	         15.98980745	          9.41499178	
          0.81545922	        -15.12995627	          1.07974762	          0.89883258	          8.86417029	         35.09648580	         -7.42320871	        -34.49911789	         11.31332706	         16.19446882	          9.37837226	
          0.82505285	        -15.13181112	          1.09185285	          0.89785675	          8.12270538	         35.93918553	         -7.54138526	        -32.80069283	         11.30303343	         16.32736526	          9.34531552	
          0.83464649	        -15.13545594	          1.10402823	          0.89682065	          7.39748444	         36.71268316	         -7.69451104	        -31.00488054	         11.28491398	         16.39727489	          9.31620771	
          0.84424013	        -15.14095977	          1.11628575	          0.89572694	          6.68940341	         37.41027221	         -7.88625369	        -29.13786843	         11.25735909	         16.41233987	          9.29163936	
          0.85383377	        -15.14835110	          1.12864365	          0.89458803	          6.00049584	         38.01900017	         -8.12285405	        -27.23383882	         11.21432738	         16.37984728	          9.27291450	
          0.86342741	        -15.15765116	          1.14112344	          0.89342561	          5.33391794	         38.52309307	         -8.41143384	        -25.32498438	         11.14340521	         16.30619235	          9.26175354	
          0.87302104	        -15.16854047	          1.15374389	          0.89226222	          4.69408201	         38.91313404	         -8.76047273	        -23.43913888	         11.02831119	         16.19676117	          9.25934264	
          0.88261468	        -15.18022221	          1.16651960	          0.89111580	          4.08624893	         39.18899723	         -9.17982282	        -21.59816997	         10.85251762	         16.05567550	          9.26608740	
          0.89220832	        -15.19148412	          1.17946340	          0.89000067	          3.51570206	         39.35757197	         -9.67979749	        -19.82368937	         10.60174984	         15.88553427	          9.28191605	
          0.90180196	        -15.20110633	          1.19258918	          0.88892900	          2.98732571	         39.42607674	        -10.27007697	        -18.13050562	         10.26316347	         15.68752811	          9.30691992	
          0.91139560	        -15.20794546	          1.20591140	          0.88790996	          2.50555421	         39.40133388	        -10.95923206	        -16.53041106	          9.82461114	         15.46154715	          9.34133783	
          0.92098923	        -15.21074719	          1.21944424	          0.88694884	          2.07500444	         39.29093665	        -11.75626249	        -15.04045171	          9.27524215	         15.20630836	          9.38530922	
          0.93058287	        -15.20824866	          1.23320211	          0.88604670	          1.70119753	         39.09992542	        -12.67146046	        -13.67517985	          8.60408089	         14.91979737	          9.43912640	
          0.94017651	        -15.19904594	          1.24719861	          0.88519925	          1.39004414	         38.83307719	        -13.71575590	        -12.45447850	          7.80068911	         14.59913242	          9.50304185	
          0.94977015	        -15.18158220	          1.26144549	          0.88439536	          1.14720179	         38.49574655	        -14.89935395	        -11.40713640	          6.85755790	         14.24051111	          9.57720602	
